<svg xmlns="http://www.w3.org/2000/svg" viewBox="0 0 400 350"><rect width="400" height="350" fill="#e4cfb3"/><circle cx="325" cy="66" r="1" fill="#fff" opacity=".2"/><circle cx="374" cy="338" r="1" fill="#fff" opacity=".2"/><circle cx="230" cy="66" r="1" fill="#fff" opacity=".2"/><circle cx="134" cy="240" r="1" fill="#fff" opacity=".2"/><circle cx="264" cy="198" r="1" fill="#fff" opacity=".2"/><circle cx="137" cy="162" r="1" fill="#fff" opacity=".2"/><circle cx="163" cy="296" r="1" fill="#fff" opacity=".2"/><circle cx="148" cy="175" r="1" fill="#fff" opacity=".2"/><circle cx="8" cy="108" r="1" fill="#fff" opacity=".2"/><circle cx="372" cy="83" r="1" fill="#fff" opacity=".2"/><circle cx="200" cy="154" r="1" fill="#fff" opacity=".2"/><circle cx="95" cy="46" r="1" fill="#fff" opacity=".2"/><circle cx="159" cy="152" r="1" fill="#fff" opacity=".2"/><circle cx="21" cy="84" r="1" fill="#fff" opacity=".2"/><circle cx="240" cy="133" r="1" fill="#fff" opacity=".2"/><circle cx="298" cy="69" r="1" fill="#fff" opacity=".2"/><circle cx="318" cy="316" r="1" fill="#fff" opacity=".2"/><circle cx="227" cy="219" r="1" fill="#fff" opacity=".2"/><circle cx="76" cy="323" r="1" fill="#fff" opacity=".2"/><circle cx="100" cy="287" r="1" fill="#fff" opacity=".2"/><circle cx="211" cy="161" r="1" fill="#fff" opacity=".2"/><circle cx="155" cy="21" r="1" fill="#fff" opacity=".2"/><circle cx="371" cy="143" r="1" fill="#fff" opacity=".2"/><circle cx="263" cy="102" r="1" fill="#fff" opacity=".2"/><circle cx="289" cy="215" r="1" fill="#fff" opacity=".2"/><circle cx="262" cy="82" r="1" fill="#fff" opacity=".2"/><circle cx="238" cy="40" r="1" fill="#fff" opacity=".2"/><circle cx="313" cy="106" r="1" fill="#fff" opacity=".2"/><circle cx="390" cy="45" r="1" fill="#fff" opacity=".2"/><circle cx="6" cy="59" r="1" fill="#fff" opacity=".2"/><circle cx="64" cy="136" r="1" fill="#fff" opacity=".2"/><circle cx="284" cy="341" r="1" fill="#fff" opacity=".2"/><circle cx="107" cy="337" r="1" fill="#fff" opacity=".2"/><circle cx="17" cy="214" r="1" fill="#fff" opacity=".2"/><circle cx="79" cy="255" r="1" fill="#fff" opacity=".2"/><circle cx="351" cy="176" r="1" fill="#fff" opacity=".2"/><circle cx="291" cy="154" r="1" fill="#fff" opacity=".2"/><circle cx="208" cy="105" r="1" fill="#fff" opacity=".2"/><circle cx="13" cy="204" r="1" fill="#fff" opacity=".2"/><circle cx="222" cy="214" r="1" fill="#fff" opacity=".2"/><circle cx="266" cy="153" r="1" fill="#fff" opacity=".2"/><circle cx="10" cy="208" r="1" fill="#fff" opacity=".2"/><circle cx="117" cy="190" r="1" fill="#fff" opacity=".2"/><circle cx="234" cy="134" r="1" fill="#fff" opacity=".2"/><circle cx="40" cy="225" r="1" fill="#fff" opacity=".2"/><circle cx="62" cy="21" r="1" fill="#fff" opacity=".2"/><circle cx="317" cy="238" r="1" fill="#fff" opacity=".2"/><circle cx="394" cy="270" r="1" fill="#fff" opacity=".2"/><circle cx="95" cy="162" r="1" fill="#fff" opacity=".2"/><circle cx="111" cy="170" r="1" fill="#fff" opacity=".2"/><circle cx="354" cy="64" r="1" fill="#fff" opacity=".2"/><circle cx="67" cy="187" r="1" fill="#fff" opacity=".2"/><circle cx="129" cy="338" r="1" fill="#fff" opacity=".2"/><circle cx="82" cy="42" r="1" fill="#fff" opacity=".2"/><circle cx="9" cy="267" r="1" fill="#fff" opacity=".2"/><circle cx="164" cy="239" r="1" fill="#fff" opacity=".2"/><circle cx="38" cy="270" r="1" fill="#fff" opacity=".2"/><circle cx="318" cy="17" r="1" fill="#fff" opacity=".2"/><circle cx="179" cy="22" r="1" fill="#fff" opacity=".2"/><circle cx="77" cy="252" r="1" fill="#fff" opacity=".2"/><path d="M32 65q30-23 50 5 M335 288q26-15 42 9" stroke="#fff" opacity=".2" stroke-width="5" fill="none"/><ellipse cx="205" cy="246" rx="139" ry="99" fill="#50432e" opacity=".1"/><ellipse cx="200" cy="212" rx="143" ry="106" fill="#fcfaf1"/><ellipse cx="200" cy="212" rx="127" ry="90" fill="none" stroke="#d8d6c3" stroke-width="2"/><ellipse cx="137" cy="172" rx="42" ry="32" fill="#ab7743"/><ellipse cx="137" cy="167" rx="42" ry="32" fill="#d3a466"/><path d="M160 169l7 2-2 7-8-2Z" fill="#675045"/><path d="M149 174l7 2-2 7-8-2Z" fill="#675045"/><path d="M153 150l7 2-2 7-8-2Z" fill="#675045"/><path d="M127 173l7 2-2 7-8-2Z" fill="#675045"/><path d="M155 159l7 2-2 7-8-2Z" fill="#675045"/><path d="M112 165l7 2-2 7-8-2Z" fill="#675045"/><path d="M115 178l7 2-2 7-8-2Z" fill="#675045"/><ellipse cx="231" cy="169" rx="42" ry="32" fill="#ab7743"/><ellipse cx="231" cy="164" rx="42" ry="32" fill="#d3a466"/><path d="M225 154l7 2-2 7-8-2Z" fill="#675045"/><path d="M219 147l7 2-2 7-8-2Z" fill="#675045"/><path d="M230 163l7 2-2 7-8-2Z" fill="#675045"/><path d="M221 163l7 2-2 7-8-2Z" fill="#675045"/><path d="M238 161l7 2-2 7-8-2Z" fill="#675045"/><path d="M243 145l7 2-2 7-8-2Z" fill="#675045"/><path d="M230 157l7 2-2 7-8-2Z" fill="#675045"/><ellipse cx="178" cy="231" rx="42" ry="32" fill="#ab7743"/><ellipse cx="178" cy="226" rx="42" ry="32" fill="#d3a466"/><path d="M197 219l7 2-2 7-8-2Z" fill="#675045"/><path d="M164 213l7 2-2 7-8-2Z" fill="#675045"/><path d="M203 237l7 2-2 7-8-2Z" fill="#675045"/><path d="M161 226l7 2-2 7-8-2Z" fill="#675045"/><path d="M167 211l7 2-2 7-8-2Z" fill="#675045"/><path d="M179 228l7 2-2 7-8-2Z" fill="#675045"/><path d="M184 241l7 2-2 7-8-2Z" fill="#675045"/><ellipse cx="267" cy="237" rx="42" ry="32" fill="#ab7743"/><ellipse cx="267" cy="232" rx="42" ry="32" fill="#d3a466"/><path d="M284 243l7 2-2 7-8-2Z" fill="#675045"/><path d="M270 251l7 2-2 7-8-2Z" fill="#675045"/><path d="M264 251l7 2-2 7-8-2Z" fill="#675045"/><path d="M249 251l7 2-2 7-8-2Z" fill="#675045"/><path d="M251 242l7 2-2 7-8-2Z" fill="#675045"/><path d="M247 226l7 2-2 7-8-2Z" fill="#675045"/><path d="M274 233l7 2-2 7-8-2Z" fill="#675045"/><ellipse cx="111" cy="250" rx="42" ry="32" fill="#ab7743"/><ellipse cx="111" cy="245" rx="42" ry="32" fill="#d3a466"/><path d="M124 235l7 2-2 7-8-2Z" fill="#675045"/><path d="M120 240l7 2-2 7-8-2Z" fill="#675045"/><path d="M99 252l7 2-2 7-8-2Z" fill="#675045"/><path d="M131 263l7 2-2 7-8-2Z" fill="#675045"/><path d="M97 246l7 2-2 7-8-2Z" fill="#675045"/><path d="M129 233l7 2-2 7-8-2Z" fill="#675045"/><path d="M121 242l7 2-2 7-8-2Z" fill="#675045"/></svg>